<!DOCTYPE svg PUBLIC "-//W3C//DTD SVG 1.1//EN" "http://www.w3.org/Graphics/SVG/1.1/DTD/svg11.dtd" [
	<!ENTITY ns_flows "http://ns.adobe.com/Flows/1.0/">
]><svg xmlns="http://www.w3.org/2000/svg" width="80" height="91" viewBox="7.952 4.055 80 91" overflow="visible"><path fill="#A81815" d="M27.814 39.616l3.228 9.085 8.39 1.6 4.057 1.21-1.05 5.33 1.116 5.605-1.63 3.968-2.048 3.145.823 4.38-.818 3.237 1.096 4.88h8.761l4.517-3.512 1.506-3.312 5.2-2.836 1.508-6.21 6.26-4.102 5.44-5.963-5.677-.243 5.162-1.37 5.3-4.248V46.56l-6.494-8.507H66.71l-3.97-.88-4.105-2.8-1.916 1.167-4.655-4.276.41-2.48-10.265-1.24-3.833.954 5.56.98-4.866.385-10.118 3.968v2.053"/><path fill="#CCB879" d="M16.118 45.638l4.97-2.645 4.287 4.062h3.01l2.6 2.594 3.56.782 4.26.376 3.305 1.216-.465 4.638 1.01 6.224-4.774 5.286.156 4.157-2.62 4.258.668 1.643-1.283 1.645 1.695.77 2.156 1.95 2.567.77 2.464 1.694 2.31.255L44.3 86.7l-2.618-.256-4.98-3.336-3.54-.77-5.852-3.747-5.03-11.342-1.85-1.335-1.948-.616-6.21-7.032 3.284-8.777.924-.873-.72-2.258"/><path fill="#817A42" d="M14.63 48.872l1.077-1.462-1.823-2.45-3.066-2.047 4.934 1.697 1.08-1.966 3.8-1.47 2.722-.36 2.824 1.832 1.13-.547-1.18-2.824 2.428-2.515-.376-1.95.376-1.488 3.68-3.54 1.487-3.062 2.31-.327-1.18-2.156-2.722 1.232 2.413-2.363 2.566.308 1.642 1.643 1.437-1.95-2.208-.36.052-1.643-4.21-3.387-.77 1.812-2.103-1.473h-1.333l-.488 2.192.384 1.89s-1.54.15-1.54.305c0 .153.36 1.82.36 1.82l-1.592.398-.103-2.06-1.746-1.338-1.488-.567 3.54-3.953 1.387.82.222-2.052.574-1.232-3.623 1.027-1.023-2.515-1.796 2.26-1.386-1.747-1.95 1.13-2.772 3.49-.667-1.284-1.027 1.592-1.042 1.848-4.892 7.904v1.334l3.763-4.876 1.11-2.618.403 2.412-4.573 9.24-1.516 2.668 1.5 10.214 2.264 2.258 2.725.256z"/><path fill="#817A42" d="M26.333 12.055h.62v1.657l3.13-.924 1.383 1.848-1.335 1.335 2.182.77 1.374-1.54.583-1.283-2.56-2.053-.045-1.385 3.647-1.798-1.59-.674"/><path fill="#817A42" d="M37.932 8.63l5.082 4.158-2.823 2.977-.41 3.747-3.336-2.26-.256-2.513-3.542-3.337"/><path fill="#CCB879" d="M54.95 24.44l1.282 5.235 1.797 1.156-.67-2.694 1.182-1.42-.462-1.66-1.334.256-1.027-1.54M64.097 28.56l-.302 1.263 2.044.324.324 3.203 2.788-.493V31.78l-1.395-1.9-1.853-.64"/><path fill="#CCB879" d="M62.698 33.35l1.412 2.203 1.82.435 2.157-.46 1.745-1.233-.64-.564-3.286 1.36-1.31-2.617-.973-.23M57.952 28.084v2.875l1.513 1.05 1.258-.82.41-1.59-2.014-2.03M55.768 31.472l4.8 3.465.745-1.078-.642-1.105-1.795-.282-1.49-1.155-1.025-.616"/><path fill="#FCC978" d="M43.952 8.63l2.738-1.744 1.062 1.745 1.224-.87-1.158-3.646s7.375.976 10.764 1.59c3.387.617 12.055 5.493 12.055 5.493l-.466 1.13-1.747.46-1.642 1.027-2.463.257 1.334-2.104-2.258.36-1.796 1.745 2.054 2.31-2.157.36-2.874-1.488-4.895 3.285 1.454.975-2.26 2.002-3.18-.616.614-5.954 2.62-1.745-1.182-2.414-1.9-.256-2.926-.667.617 1.386 2.36.204.104 2.155-2.104.46-1.252.257-2.737-4.414V8.63zM43.938 23.002l.72 3.715 2.05.392 2.98-2.362 1.487-1.746-3.233-.513"/><path fill="#FCC978" d="M43.952 18.23v1.825h2.09l.41-1.324 1.105.778 1.41-1.898-3.405-1.384-1.61.54"/><path fill="#FCCB7D" d="M71.295 12.814l-1.463 2.335 7.008 1.59"/><path fill="#817A42" d="M78.32 55.135l5.01 2.313 2.03 13.607h2.156l-1.13 2H83.82l-.616-2.263-4.928 4.26-1.95 1.205-2.99-1.4-4.607-1.982-2.006-1.454-2.73 1.122-2.042 1.195v-1.54l3.963-3.974 4.037-2.63v-2.708l4-3.9v-1.746"/><path fill="#5F7782" d="M82.69 71.68l.857 2.702 1.195.48s-4.96 6.4-7.117 8.416c-2.154 2.02-9.615 7.187-9.615 7.187l-1.163-.89 1.813-.48 7.426-7.63-.036-3.9 6.64-5.886z"/><path fill="#32637D" d="M57.026 75.648l3.764-.376 2.533-1.574 2.978-.82 3.935 1.984-1.607 1.54 3.866-.753 2.84 2.327s-1.472 4.482-1.573 4.482c-.103 0-6.022 6.09-6.022 6.09l-3.217.376-2.667-1.3-3.66 1.027-3.115-1.506-3.08-1.37-1.13 1.747-3.113 1.23-6.05.172-2.462-.787 8.24-.753 1.3-1.13-.104-3.045 2.053.034 1.47-.958 2.91-4.037 1.913-2.602z"/><path fill="#32637D" d="M50.56 91.055h5.337l-2.173 1.776 1.147 1.555 2.21.42 5.618-2.256-4.748-.95.59-1.545h-3.875l-2.77-1.657"/><path fill="none" d="M7.952 4.055h80v91h-80z"/></svg>