<?xml version="1.0" encoding="utf-8"?>
<!-- Generator: Adobe Illustrator 15.0.0, SVG Export Plug-In  -->
<!DOCTYPE svg PUBLIC "-//W3C//DTD SVG 1.1//EN" "http://www.w3.org/Graphics/SVG/1.1/DTD/svg11.dtd" [
	<!ENTITY ns_flows "http://ns.adobe.com/Flows/1.0/">
]>
<svg version="1.1"
	 xmlns="http://www.w3.org/2000/svg" xmlns:xlink="http://www.w3.org/1999/xlink" xmlns:a="http://ns.adobe.com/AdobeSVGViewerExtensions/3.0/"
	 x="0px" y="0px" width="62px" height="61px" viewBox="155 33 62 61" overflow="visible" enable-background="new 155 33 62 61"
	 xml:space="preserve">
<defs>
</defs>
<polygon fill="#6F6F6E" points="188.128,76.856 188.128,92.466 189.915,92.466 189.915,93.467 182.971,93.467 182.971,92.466 
	184.749,92.466 184.749,75.355 "/>
<path fill="#6F6F6E" d="M188.128,72.037v-4.9c-0.366-0.177-3.379-1.593-3.379-1.593v4.891L188.128,72.037z"/>
<polygon fill="#6F6F6E" points="188.128,62.266 188.128,44.918 189.915,44.918 189.915,43.928 182.971,43.928 182.971,44.93 
	184.749,44.93 184.749,60.564 "/>
<polygon fill="#6F6F6E" points="193.46,44.833 188.818,47.161 188.818,50.575 193.456,48.298 "/>
<polygon fill="#6F6F6E" points="184.251,77.532 179.608,79.858 179.608,83.274 184.243,80.998 "/>
<polygon fill="#6F6F6E" points="184.251,86.911 179.608,89.24 179.608,92.652 184.243,90.376 "/>
<polygon fill="#6F6F6E" points="193.46,54.115 188.818,56.444 188.818,59.854 193.456,57.581 "/>
<path fill="#6F6F6E" d="M184.166,49.455c0,0-3.11,0.981-4.132,3.013c-1.025,2.032-0.608,3.729-0.608,3.729s1.657-1.884,3.287-2.665
	c1.626-0.781,1.453-0.673,1.453-0.673V49.455z"/>
<path fill="#6F6F6E" d="M188.732,88.12c0,0,3.109-0.98,4.133-3.013c1.023-2.032,0.605-3.727,0.605-3.727s-1.657,1.883-3.283,2.663
	c-1.629,0.78-1.456,0.675-1.456,0.675V88.12z"/>
<polygon fill="#6F6F6E" points="184.166,58.795 184.166,60.2 182.914,59.504 "/>
<polygon fill="#6F6F6E" points="188.814,78.616 188.814,77.21 190.069,77.905 "/>
<path fill="#6F6F6E" d="M193.503,70.393c-0.345-1.211-1.61-1.929-2.93-2.737c-2.195-1.346-5.095-2.26-6.612-3.09
	c-1.16-0.636-2.103-1.224-2.816-1.904c-1.193-1.135-1.719-2.531-1.551-4.811c1.648,1.912,4.675,3.155,7.474,4.538
	c3.372,1.666,6.608,3.325,6.432,6.893C193.489,69.531,193.548,70.12,193.503,70.393"/>
<path fill="#6F6F6E" d="M193.503,80.087c-0.345-1.212-1.61-1.93-2.93-2.738c-2.195-1.345-5.095-2.259-6.612-3.091
	c-1.16-0.635-2.103-1.223-2.816-1.901c-1.193-1.136-1.719-2.532-1.551-4.812c1.648,1.911,4.675,3.154,7.474,4.538
	c3.372,1.665,6.608,3.325,6.432,6.892C193.489,79.226,193.548,79.814,193.503,80.087"/>
<path fill="#6F6F6E" d="M180.636,62.998c-0.606-0.607-0.742-0.845-0.742-0.845s-0.261,0.665-0.37,1.464
	c-0.108,0.801-0.08,1.878-0.08,1.878s0.389-0.434,1.029-1.073c0.64-0.64,0.909-0.784,0.909-0.784S181.246,63.607,180.636,62.998z"/>
<path fill="#6F6F6E" d="M192.339,74.417c0.611,0.609,0.742,0.846,0.742,0.846s0.259-0.664,0.373-1.465
	c0.109-0.8,0.081-1.875,0.081-1.875s-0.393,0.432-1.032,1.072c-0.637,0.639-0.908,0.783-0.908,0.783S191.731,73.81,192.339,74.417z"
	/>
<path fill="#6F6F6E" d="M170.026,87.226c-0.552,0.771-0.624,0.906-0.222,1.25l0.172,0.145c0.024,0.06-0.086,0.181-0.146,0.171
	c-0.354-0.275-0.595-0.461-0.903-0.678c-0.29-0.209-0.544-0.379-0.921-0.624c-0.028-0.053,0.053-0.195,0.117-0.194l0.192,0.117
	c0.458,0.271,0.56,0.157,1.111-0.615l1.854-2.592c0.552-0.774,0.612-0.886,0.217-1.245l-0.167-0.151
	c-0.022-0.061,0.085-0.182,0.145-0.172c0.354,0.274,0.597,0.458,0.888,0.667c0.308,0.221,0.559,0.39,0.936,0.635
	c0.027,0.053-0.042,0.181-0.117,0.193l-0.197-0.109c-0.468-0.255-0.555-0.164-1.108,0.608L170.026,87.226z"/>
<path fill="#6F6F6E" d="M170.205,81.373c0.551,0.513,0.741,1.006,0.799,1.192c-0.057,0.219-0.404,0.764-0.675,1.085
	c-0.075,0.015-0.188-0.063-0.179-0.126c0.211-0.427,0.541-1.321-0.221-2.026c-0.553-0.512-1.155-0.399-1.522-0.005
	c-0.267,0.288-0.505,0.665-0.313,1.419l0.249,0.984c0.126,0.521,0.161,1.249-0.338,1.787c-0.58,0.625-1.533,0.679-2.387-0.111
	c-0.204-0.189-0.412-0.441-0.531-0.651c-0.069-0.099-0.143-0.203-0.195-0.252c0.085-0.213,0.37-0.635,0.624-0.911
	c0.063-0.015,0.188,0.063,0.182,0.133c-0.206,0.395-0.425,0.984,0.206,1.569c0.645,0.598,1.179,0.298,1.458-0.003
	c0.352-0.381,0.287-0.943,0.19-1.325l-0.221-0.816c-0.178-0.64-0.232-1.398,0.348-2.022
	C168.347,80.569,169.349,80.581,170.205,81.373z"/>
<path fill="#6F6F6E" d="M165.715,78.579c0.757-0.562,0.845-0.652,0.579-1.1l-0.15-0.246c-0.003-0.065,0.135-0.146,0.188-0.12
	c0.292,0.42,0.467,0.67,0.682,0.956c0.215,0.288,0.407,0.533,0.765,0.982c0.014,0.058-0.1,0.165-0.177,0.134l-0.214-0.242
	c-0.341-0.383-0.475-0.339-1.23,0.223l-3.206,2.396c-0.222,0.166-0.229,0.172-0.068,0.386l0.294,0.396
	c0.229,0.308,0.538,0.692,0.839,0.749c0.284,0.055,0.496,0.008,0.737-0.046c0.086,0.024,0.125,0.152,0.089,0.225
	c-0.411,0.125-0.949,0.36-1.273,0.524c-0.031-0.009-0.107-0.098-0.103-0.136c0.199-0.214,0.012-0.445-0.233-0.774l-2.172-2.908
	c-0.291-0.387-0.353-0.441-0.62-0.409c-0.04-0.024-0.092-0.109-0.076-0.146c0.354-0.14,0.972-0.523,1.172-0.706
	c0.079-0.015,0.169,0.107,0.152,0.175c-0.162,0.156-0.389,0.405-0.389,0.57c0,0.257,0.15,0.573,0.444,0.968l0.379,0.509
	c0.162,0.215,0.163,0.202,0.401,0.025L165.715,78.579z"/>
<path fill="#6F6F6E" d="M161.117,77.285c-0.841,0.444-0.966,0.53-0.76,1.018l0.089,0.206c-0.006,0.066-0.155,0.125-0.207,0.089
	c-0.191-0.404-0.326-0.678-0.502-1.01c-0.166-0.317-0.316-0.583-0.542-0.969c-0.002-0.062,0.132-0.152,0.188-0.122l0.12,0.19
	c0.29,0.446,0.432,0.391,1.271-0.052l2.819-1.486c0.837-0.443,0.939-0.519,0.749-1.016l-0.079-0.21
	c0.005-0.063,0.157-0.124,0.206-0.088c0.194,0.404,0.328,0.677,0.496,0.995c0.174,0.333,0.325,0.599,0.55,0.985
	c0,0.061-0.119,0.144-0.19,0.121l-0.128-0.185c-0.302-0.439-0.424-0.396-1.26,0.047L161.117,77.285z"/>
<path fill="#6F6F6E" d="M162.078,71.443c0.89-0.302,1.003-0.359,0.886-0.868l-0.066-0.28c0.016-0.062,0.177-0.098,0.218-0.055
	c0.148,0.488,0.237,0.78,0.351,1.119c0.115,0.339,0.225,0.634,0.427,1.17c-0.009,0.06-0.146,0.125-0.212,0.073l-0.13-0.297
	c-0.206-0.469-0.346-0.469-1.238-0.167l-3.79,1.289c-0.261,0.088-0.271,0.091-0.184,0.345l0.159,0.468
	c0.123,0.365,0.299,0.825,0.566,0.971c0.254,0.14,0.471,0.162,0.714,0.183c0.075,0.05,0.074,0.183,0.016,0.241
	c-0.428-0.006-1.013,0.05-1.372,0.106c-0.027-0.019-0.071-0.126-0.054-0.16c0.252-0.144,0.15-0.42,0.016-0.812l-1.167-3.434
	c-0.156-0.458-0.199-0.528-0.461-0.581c-0.031-0.037-0.055-0.134-0.027-0.162c0.378-0.024,1.086-0.198,1.333-0.312
	c0.08,0.012,0.129,0.155,0.091,0.217c-0.203,0.095-0.496,0.262-0.545,0.422c-0.08,0.243-0.038,0.588,0.123,1.056l0.206,0.602
	c0.083,0.254,0.09,0.242,0.371,0.146L162.078,71.443z"/>
<path fill="#6F6F6E" d="M157.633,68.925c-0.476,0.26-0.646,0.415-0.649,0.802v0.163c-0.045,0.068-0.169,0.074-0.224,0.007
	c-0.01-0.259-0.032-0.545-0.076-0.929c-0.045-0.391-0.091-0.703-0.147-1.073c0.026-0.068,0.159-0.101,0.219-0.044l0.032,0.131
	c0.083,0.333,0.146,0.398,0.216,0.399c0.086-0.029,0.552-0.234,1.197-0.585c0.985-0.526,1.963-1.051,2.926-1.61
	c-0.616-0.21-1.577-0.49-2.071-0.632c-0.635-0.199-1.688-0.497-2.086-0.604c-0.195-0.051-0.295-0.048-0.356-0.042
	c-0.062,0.008-0.125,0.104-0.125,0.42v0.163c-0.046,0.067-0.179,0.066-0.223,0.007c-0.013-0.251-0.041-0.59-0.078-0.928
	c-0.034-0.293-0.073-0.569-0.126-0.86c0.03-0.067,0.173-0.083,0.222-0.044l0.048,0.267c0.043,0.211,0.164,0.331,0.364,0.426
	c0.447,0.202,1.208,0.468,2.159,0.768l1.149,0.357c0.859,0.263,1.939,0.565,2.426,0.664c0.021,0.025,0.034,0.058,0.038,0.095
	c0.006,0.045,0.001,0.09-0.011,0.136c-0.365,0.141-0.782,0.341-1.139,0.544L157.633,68.925z"/>
<path fill="#6F6F6E" d="M160.993,60.55c0.936,0.094,1.062,0.089,1.169-0.422l0.053-0.282c0.042-0.051,0.202-0.017,0.222,0.04
	c-0.069,0.506-0.109,0.808-0.144,1.165c-0.036,0.357-0.06,0.669-0.099,1.241c-0.032,0.051-0.185,0.055-0.223-0.022l0.004-0.323
	c0.011-0.513-0.121-0.572-1.058-0.666l-3.979-0.403c-0.279-0.027-0.289-0.028-0.314,0.238l-0.047,0.491
	c-0.039,0.383-0.072,0.875,0.109,1.119c0.176,0.233,0.362,0.342,0.577,0.463c0.044,0.077-0.013,0.197-0.089,0.225
	c-0.383-0.182-0.94-0.374-1.293-0.473c-0.013-0.028-0.012-0.146,0.018-0.169c0.292-0.024,0.31-0.32,0.353-0.73l0.363-3.611
	c0.05-0.479,0.041-0.561-0.179-0.718c-0.012-0.047,0.006-0.145,0.043-0.159c0.356,0.135,1.072,0.271,1.342,0.271
	c0.069,0.042,0.052,0.194-0.007,0.233c-0.225,0.004-0.562,0.034-0.671,0.157c-0.172,0.189-0.278,0.521-0.327,1.012l-0.065,0.633
	c-0.027,0.266-0.017,0.258,0.277,0.288L160.993,60.55z"/>
<path fill="#6F6F6E" d="M159.766,57.456c-1.69-0.593-2.539-2.315-1.928-4.057c0.683-1.952,2.439-2.437,3.927-1.917
	c1.707,0.599,2.491,2.335,1.918,3.968C163.027,57.329,161.285,57.989,159.766,57.456z M161.732,52.421
	c-1.397-0.489-3.116-0.4-3.682,1.214c-0.309,0.878-0.109,2.231,1.743,2.879c1.251,0.439,3.084,0.4,3.667-1.265
	C163.817,54.235,163.394,53.004,161.732,52.421z"/>
<path fill="#6F6F6E" d="M167.942,47.984c-0.487,0.574-0.972,0.785-1.157,0.85c-0.22-0.045-0.78-0.368-1.111-0.626
	c-0.021-0.076,0.054-0.189,0.117-0.182c0.437,0.193,1.345,0.48,2.015-0.311c0.489-0.574,0.35-1.171-0.06-1.52
	c-0.299-0.256-0.685-0.479-1.43-0.252l-0.976,0.289c-0.513,0.151-1.24,0.216-1.799-0.259c-0.649-0.552-0.745-1.502,0.01-2.391
	c0.18-0.211,0.422-0.428,0.628-0.56c0.098-0.07,0.196-0.149,0.242-0.204c0.218,0.078,0.651,0.342,0.94,0.584
	c0.016,0.062-0.054,0.188-0.125,0.188c-0.405-0.19-1.003-0.382-1.561,0.274c-0.569,0.668-0.247,1.19,0.066,1.456
	c0.396,0.335,0.955,0.246,1.333,0.132l0.806-0.256c0.63-0.204,1.387-0.291,2.036,0.261
	C168.666,46.095,168.696,47.097,167.942,47.984z"/>
<path fill="#6F6F6E" d="M166.399,42.09c-0.479-0.26-0.702-0.322-1.029-0.113l-0.136,0.087c-0.083-0.002-0.154-0.105-0.127-0.185
	c0.213-0.151,0.441-0.324,0.741-0.568c0.305-0.248,0.543-0.452,0.826-0.704c0.069-0.011,0.17,0.083,0.152,0.164l-0.091,0.099
	c-0.236,0.249-0.26,0.337-0.22,0.397c0.07,0.059,0.492,0.338,1.136,0.691c0.977,0.546,1.944,1.087,2.936,1.597
	c-0.157-0.634-0.44-1.593-0.586-2.086c-0.175-0.642-0.493-1.687-0.617-2.083c-0.061-0.191-0.117-0.273-0.157-0.322
	c-0.042-0.048-0.155-0.048-0.42,0.123l-0.136,0.088c-0.083-0.002-0.156-0.118-0.129-0.186c0.208-0.144,0.479-0.353,0.741-0.566
	c0.229-0.186,0.441-0.369,0.66-0.569c0.071-0.011,0.16,0.1,0.153,0.163l-0.198,0.184c-0.153,0.15-0.189,0.317-0.163,0.537
	c0.069,0.484,0.254,1.267,0.52,2.231l0.318,1.159c0.239,0.865,0.568,1.938,0.751,2.402c-0.011,0.032-0.033,0.062-0.061,0.083
	c-0.037,0.028-0.078,0.049-0.123,0.063c-0.313-0.229-0.708-0.474-1.069-0.665L166.399,42.09z"/>
<path fill="#6F6F6E" d="M173.997,41.06c0.442,0.832,0.512,0.926,1.046,0.713l0.228-0.089c0.068,0.015,0.123,0.156,0.091,0.206
	c-0.461,0.224-0.727,0.354-1.042,0.522c-0.334,0.176-0.613,0.334-0.957,0.535c-0.06,0-0.141-0.117-0.119-0.189l0.154-0.113
	c0.424-0.305,0.392-0.409-0.048-1.24l-1.547-2.92c-0.356-0.673-0.449-0.807-0.82-0.649l-0.302,0.119
	c-0.082-0.019-0.136-0.142-0.088-0.206c0.39-0.278,0.877-0.545,1.534-0.894c0.657-0.349,1.193-0.521,1.686-0.488
	c0.486,0.036,0.975,0.306,1.263,0.852c0.387,0.728,0.128,1.33-0.126,1.677c-0.261,0.351-0.642,0.645-0.967,0.815
	c-0.067,0.007-0.13-0.111-0.091-0.152c0.77-0.612,0.824-1.257,0.459-1.947c-0.405-0.767-1.121-1.026-1.944-0.589
	c-0.42,0.221-0.412,0.257-0.278,0.511L173.997,41.06z"/>
<path fill="#6F6F6E" d="M176.389,36.378c-0.28-0.889-0.34-1.011-0.861-0.91l-0.141,0.025c-0.063-0.019-0.096-0.176-0.054-0.219
	c0.375-0.099,0.669-0.182,1.018-0.292l1.605-0.507c0.548-0.173,1.053-0.333,1.146-0.392c0.099,0.129,0.342,0.727,0.495,1.093
	c-0.018,0.062-0.148,0.121-0.207,0.085c-0.256-0.361-0.428-0.635-0.907-0.606c-0.191,0.015-0.47,0.092-0.845,0.21l-0.614,0.195
	c-0.256,0.082-0.25,0.1-0.149,0.423l0.542,1.708c0.076,0.239,0.103,0.231,0.357,0.149l0.495-0.157
	c0.358-0.114,0.619-0.214,0.709-0.28c0.092-0.067,0.135-0.137,0.11-0.365l-0.043-0.372c0.026-0.064,0.173-0.11,0.225-0.062
	c0.065,0.206,0.136,0.549,0.238,0.873c0.099,0.308,0.234,0.623,0.293,0.811c-0.014,0.071-0.159,0.116-0.218,0.077l-0.184-0.308
	c-0.081-0.144-0.182-0.253-0.365-0.241c-0.13,0.003-0.339,0.059-0.673,0.164l-0.496,0.158c-0.254,0.082-0.279,0.098-0.208,0.32
	l0.38,1.203c0.143,0.453,0.261,0.735,0.444,0.838c0.137,0.069,0.346,0.106,1.095-0.131c0.657-0.208,0.896-0.321,1.053-0.474
	c0.126-0.134,0.262-0.506,0.344-1.02c0.048-0.062,0.176-0.073,0.234-0.008c0.034,0.317,0.028,1.044-0.012,1.309
	c-0.773,0.225-1.536,0.458-2.296,0.697l-0.769,0.245c-0.365,0.115-0.654,0.217-1.152,0.392c-0.06-0.009-0.119-0.14-0.087-0.208
	l0.276-0.115c0.472-0.197,0.476-0.337,0.189-1.235L176.389,36.378z"/>
<path fill="#6F6F6E" d="M181.603,34.967c-0.092-0.848-0.136-0.996-0.506-0.999l-0.29-0.005c-0.068-0.038-0.082-0.18-0.015-0.223
	c0.496-0.099,1.105-0.195,1.978-0.29c0.551-0.061,1.083-0.073,1.515,0.104c0.454,0.177,0.808,0.542,0.876,1.165
	c0.09,0.847-0.523,1.383-0.948,1.61c-0.042,0.058,0.013,0.142,0.066,0.209c0.838,1.07,1.39,1.729,2.05,2.17
	c0.167,0.116,0.398,0.19,0.642,0.182c0.044,0.012,0.065,0.083,0.023,0.123c-0.077,0.035-0.22,0.068-0.388,0.088
	c-0.76,0.083-1.235-0.09-1.967-0.918c-0.268-0.305-0.701-0.878-1.021-1.25c-0.155-0.18-0.305-0.254-0.664-0.214
	c-0.398,0.044-0.417,0.055-0.397,0.242l0.125,1.121c0.102,0.935,0.13,1.039,0.655,1.054l0.192,0.006
	c0.058,0.038,0.055,0.192,0.006,0.226c-0.404,0.025-0.708,0.049-1.064,0.089c-0.374,0.04-0.694,0.084-1.108,0.147
	c-0.059-0.02-0.091-0.152-0.043-0.22l0.22-0.051c0.509-0.119,0.515-0.237,0.412-1.171L181.603,34.967z M182.473,36.159
	c0.019,0.162,0.027,0.258,0.06,0.291c0.03,0.023,0.163,0.027,0.621-0.023c0.319-0.035,0.652-0.108,0.89-0.332
	c0.221-0.212,0.39-0.548,0.324-1.152c-0.078-0.704-0.589-1.324-1.575-1.215c-0.552,0.06-0.576,0.1-0.548,0.347L182.473,36.159z"/>
<path fill="#6F6F6E" d="M187.486,34.625c0.044-0.948,0.033-1.102-0.491-1.171l-0.223-0.027c-0.054-0.038-0.029-0.198,0.027-0.223
	c0.447,0.039,0.751,0.061,1.126,0.079c0.361,0.016,0.664,0.021,1.112,0.023c0.052,0.031,0.062,0.191,0.007,0.225l-0.223,0.009
	c-0.531,0.019-0.556,0.171-0.599,1.119l-0.146,3.183c-0.042,0.949-0.031,1.073,0.496,1.161l0.223,0.038
	c0.05,0.038,0.026,0.198-0.03,0.222c-0.445-0.038-0.751-0.06-1.107-0.077c-0.377-0.018-0.681-0.021-1.129-0.025
	c-0.054-0.029-0.066-0.173-0.011-0.224l0.227-0.016c0.531-0.039,0.556-0.165,0.599-1.111L187.486,34.625z"/>
<path fill="#6F6F6E" d="M189.581,36.255c0.402-1.746,2.018-2.78,3.815-2.366c2.018,0.464,2.696,2.154,2.343,3.69
	c-0.405,1.762-2.046,2.736-3.729,2.349C190.07,39.483,189.219,37.826,189.581,36.255z M194.804,37.648
	c0.331-1.438,0.05-3.139-1.616-3.522c-0.909-0.208-2.23,0.14-2.67,2.052c-0.296,1.292-0.053,3.111,1.668,3.506
	C193.234,39.925,194.407,39.368,194.804,37.648z"/>
<path fill="#6F6F6E" d="M197.767,36.815c0.379-0.762,0.423-0.911,0.114-1.114l-0.243-0.16c-0.036-0.068,0.026-0.195,0.108-0.196
	c0.469,0.182,1.036,0.432,1.82,0.821c0.5,0.246,0.953,0.522,1.223,0.905c0.287,0.391,0.39,0.89,0.112,1.454
	c-0.378,0.761-1.185,0.881-1.67,0.843c-0.062,0.028-0.062,0.128-0.052,0.212c0.13,1.353,0.239,2.206,0.557,2.934
	c0.078,0.188,0.234,0.375,0.442,0.499c0.032,0.035,0.01,0.105-0.044,0.116c-0.087-0.011-0.224-0.058-0.376-0.135
	c-0.681-0.337-0.99-0.74-1.159-1.832c-0.063-0.402-0.117-1.118-0.188-1.602c-0.035-0.237-0.124-0.38-0.443-0.539
	c-0.362-0.179-0.38-0.179-0.465-0.011l-0.5,1.012c-0.418,0.842-0.449,0.946-0.015,1.243l0.157,0.106
	c0.027,0.064-0.055,0.192-0.115,0.192c-0.354-0.194-0.622-0.338-0.943-0.496c-0.338-0.167-0.632-0.302-1.016-0.473
	c-0.039-0.049,0.006-0.177,0.083-0.208l0.214,0.075c0.493,0.175,0.56,0.079,0.976-0.764L197.767,36.815z M197.858,38.289
	c-0.072,0.145-0.115,0.232-0.107,0.276c0.013,0.037,0.125,0.113,0.535,0.316c0.29,0.143,0.611,0.261,0.932,0.2
	c0.298-0.062,0.623-0.251,0.894-0.796c0.314-0.635,0.217-1.431-0.675-1.872c-0.496-0.246-0.535-0.226-0.648-0.001L197.858,38.289z"
	/>
<path fill="#6F6F6E" d="M202.974,39.68c0.566-0.737,0.634-0.855,0.252-1.227l-0.101-0.101c-0.021-0.062,0.09-0.177,0.148-0.167
	c0.295,0.249,0.532,0.443,0.823,0.666l1.334,1.027c0.455,0.351,0.874,0.673,0.974,0.716c-0.05,0.152-0.397,0.697-0.609,1.031
	c-0.065,0.021-0.187-0.052-0.188-0.122c0.148-0.416,0.276-0.714-0.024-1.091c-0.12-0.149-0.343-0.332-0.654-0.571l-0.512-0.393
	c-0.211-0.165-0.222-0.151-0.43,0.12l-1.09,1.419c-0.154,0.199-0.131,0.215,0.081,0.378l0.411,0.317
	c0.298,0.229,0.528,0.384,0.634,0.422c0.111,0.038,0.192,0.032,0.365-0.117l0.278-0.248c0.066-0.016,0.189,0.078,0.18,0.149
	c-0.13,0.171-0.372,0.425-0.579,0.695c-0.193,0.255-0.375,0.547-0.496,0.703c-0.067,0.027-0.188-0.064-0.189-0.135l0.147-0.327
	c0.072-0.149,0.103-0.293-0.011-0.438c-0.077-0.104-0.243-0.244-0.52-0.456l-0.412-0.316c-0.211-0.165-0.239-0.173-0.382,0.01
	l-0.769,1c-0.289,0.377-0.452,0.636-0.434,0.842c0.021,0.151,0.109,0.344,0.735,0.825c0.547,0.42,0.773,0.55,0.991,0.592
	c0.181,0.028,0.564-0.074,1.033-0.301c0.078,0.003,0.163,0.101,0.139,0.186c-0.239,0.21-0.841,0.622-1.079,0.742
	c-0.627-0.507-1.253-0.999-1.885-1.485l-0.64-0.491c-0.303-0.237-0.55-0.414-0.982-0.722c-0.024-0.055,0.046-0.179,0.125-0.188
	l0.247,0.159c0.433,0.276,0.55,0.198,1.124-0.548L202.974,39.68z"/>
<path fill="#6F6F6E" d="M210.357,46.654c0.541-0.318,0.679-0.453,0.533-0.804l-0.078-0.184c0.004-0.084,0.122-0.165,0.199-0.106
	c0.426,0.632,0.819,1.243,1.209,1.897c0.383,0.647,0.662,1.222,0.773,1.832c0.24,1.263-0.325,2.308-1.342,2.911
	c-0.978,0.581-2.097,0.609-3.094,0.014c-0.566-0.339-1.04-0.913-1.395-1.505c-0.292-0.493-0.524-1.022-0.684-1.292
	c-0.191-0.323-0.366-0.595-0.594-0.949c-0.007-0.06,0.109-0.148,0.184-0.129l0.127,0.164c0.326,0.411,0.43,0.371,1.236-0.109
	L210.357,46.654z M207.985,48.919c-0.406,0.242-0.64,0.412-0.748,0.652c-0.139,0.312-0.042,0.65,0.249,1.135
	c0.885,1.494,2.26,1.584,3.693,0.733c0.846-0.501,2.037-1.759,0.836-3.778c-0.266-0.454-0.478-0.664-0.558-0.699
	c-0.082-0.034-0.286,0.065-0.632,0.269L207.985,48.919z"/>
<path fill="#6F6F6E" d="M213.462,53.023c0.887-0.333,1.023-0.405,0.881-0.914l-0.061-0.217c0.011-0.062,0.17-0.103,0.212-0.062
	c0.142,0.427,0.24,0.715,0.373,1.067c0.126,0.335,0.242,0.618,0.416,1.031c-0.007,0.059-0.153,0.133-0.205,0.095l-0.095-0.204
	c-0.228-0.479-0.375-0.443-1.264-0.109l-2.987,1.119c-0.889,0.333-0.997,0.394-0.873,0.91l0.055,0.22
	c-0.014,0.063-0.172,0.103-0.216,0.062c-0.142-0.425-0.238-0.713-0.364-1.049c-0.133-0.352-0.248-0.635-0.423-1.047
	c0.009-0.06,0.137-0.127,0.203-0.095l0.108,0.201c0.241,0.472,0.366,0.444,1.255,0.111L213.462,53.023z"/>
<path fill="#6F6F6E" d="M210.655,61.624c-0.053-0.75,0.148-1.24,0.233-1.417c0.191-0.12,0.814-0.28,1.234-0.328
	c0.067,0.042,0.094,0.175,0.043,0.213c-0.447,0.166-1.299,0.593-1.228,1.63c0.053,0.75,0.57,1.083,1.108,1.045
	c0.391-0.026,0.823-0.138,1.198-0.817l0.497-0.889c0.262-0.467,0.736-1.02,1.465-1.072c0.85-0.058,1.584,0.557,1.667,1.718
	c0.016,0.276-0.004,0.603-0.06,0.839c-0.021,0.117-0.037,0.244-0.033,0.316c-0.21,0.095-0.704,0.208-1.08,0.237
	c-0.058-0.034-0.091-0.175-0.041-0.222c0.421-0.146,0.984-0.427,0.926-1.286c-0.062-0.875-0.653-1.023-1.066-0.994
	c-0.521,0.035-0.853,0.488-1.048,0.834l-0.394,0.745c-0.313,0.587-0.791,1.177-1.64,1.236
	C211.458,63.482,210.733,62.787,210.655,61.624z"/>
<path fill="#6F6F6E" d="M212.664,67.479c0.203-0.04,0.233-0.072,0.265-0.339l0.158-1.343c0.027-0.224,0.005-0.279-0.172-0.363
	l-0.899-0.422c-0.384-0.181-0.614-0.273-0.713-0.282c-0.105-0.014-0.165,0.024-0.209,0.236l-0.063,0.29
	c-0.049,0.057-0.192,0.041-0.218-0.043c0.043-0.229,0.078-0.506,0.135-0.923c0.035-0.293,0.053-0.615,0.075-0.856
	c0.042-0.049,0.187-0.051,0.225,0.007l-0.008,0.297c-0.007,0.216,0.068,0.422,0.372,0.585c0.392,0.209,0.94,0.526,1.892,1.019
	l2.293,1.19c0.307,0.163,0.466,0.237,0.612,0.226c0.038,0.221,0.179,0.391,0.287,0.504c-0.01,0.053-0.034,0.114-0.096,0.123
	c-0.407,0.07-0.832,0.162-1.24,0.251l-3.717,0.794c-0.796,0.169-0.943,0.268-1.033,0.646l-0.054,0.237
	c-0.054,0.057-0.194,0.023-0.223-0.027c0.062-0.362,0.105-0.672,0.153-1.072c0.05-0.427,0.074-0.768,0.097-1.026
	c0.042-0.068,0.185-0.058,0.223,0.008l-0.002,0.261c-0.006,0.189,0.032,0.32,0.121,0.331c0.097,0.011,0.263-0.014,0.484-0.06
	L212.664,67.479z M213.662,65.811c-0.196-0.094-0.203-0.088-0.235,0.161l-0.129,1.096c-0.032,0.257,0.001,0.279,0.253,0.228
	l1.503-0.31c0.222-0.045,0.473-0.096,0.586-0.138l0.003-0.019c-0.04-0.031-0.244-0.146-0.499-0.274L213.662,65.811z"/>
<path fill="#6F6F6E" d="M209.9,74.858c-0.255-0.093-1.252-0.468-1.479-0.522c-0.043-0.035-0.068-0.102-0.032-0.193
	c0.182-0.049,0.565-0.182,1.668-0.601L213,72.423c0.346-0.129,1.247-0.443,1.496-0.549l0.005-0.017
	c-0.088-0.072-0.277-0.152-0.53-0.246l-1.826-0.685c-0.395-0.147-1.492-0.539-1.795-0.499c-0.111,0.025-0.224,0.165-0.316,0.368
	l-0.124,0.25c-0.083,0.026-0.184-0.019-0.203-0.095c0.158-0.372,0.276-0.662,0.392-0.971c0.13-0.354,0.207-0.583,0.301-0.882
	c0.063-0.043,0.184-0.008,0.214,0.062l-0.06,0.236c-0.055,0.199-0.044,0.355,0.032,0.432c0.259,0.23,1.283,0.604,1.685,0.755
	l2.425,0.907c0.237,0.086,0.415,0.146,0.672,0.041c0.162-0.073,0.294-0.252,0.398-0.444l0.069-0.136
	c0.069-0.033,0.194,0.015,0.203,0.094c-0.156,0.343-0.323,0.789-0.378,0.94c-0.05,0.133-0.098,0.279-0.121,0.395
	c-0.49,0.006-1.971,0.591-2.383,0.745l-1.217,0.47c-0.868,0.327-1.488,0.574-2.036,0.817l-0.005,0.017
	c0.03,0.05,0.163,0.101,0.34,0.164l1.794,0.673c0.394,0.146,1.487,0.547,1.799,0.481c0.092-0.022,0.194-0.136,0.361-0.456
	l0.07-0.137c0.073-0.041,0.205,0.019,0.205,0.094c-0.161,0.38-0.276,0.662-0.397,0.981c-0.133,0.362-0.208,0.582-0.299,0.873
	c-0.066,0.051-0.183,0.007-0.213-0.06l0.027-0.125c0.057-0.283,0.054-0.478,0-0.535c-0.249-0.256-1.294-0.629-1.681-0.771
	L209.9,74.858z"/>
<path fill="#6F6F6E" d="M211.403,78.205c0.808,0.494,0.947,0.559,1.261,0.13l0.132-0.183c0.06-0.025,0.188,0.073,0.183,0.133
	c-0.249,0.374-0.415,0.629-0.612,0.95c-0.185,0.305-0.339,0.57-0.557,0.962c-0.049,0.032-0.196-0.036-0.199-0.101l0.103-0.202
	c0.236-0.473,0.116-0.567-0.694-1.062l-2.722-1.66c-0.811-0.494-0.927-0.544-1.257-0.125l-0.138,0.177
	c-0.059,0.028-0.188-0.072-0.182-0.132c0.247-0.373,0.414-0.628,0.6-0.936c0.198-0.32,0.349-0.584,0.567-0.976
	c0.048-0.031,0.18,0.028,0.196,0.101l-0.092,0.205c-0.219,0.484-0.121,0.563,0.686,1.059L211.403,78.205z"/>
<path fill="#6F6F6E" d="M205.688,80.606c-0.708-0.618-0.815-0.688-1.198-0.33l-0.206,0.198c-0.064,0.017-0.175-0.103-0.16-0.16
	c0.35-0.374,0.556-0.598,0.791-0.869c0.234-0.269,0.435-0.513,0.801-0.956c0.052-0.022,0.178,0.062,0.165,0.146l-0.19,0.262
	c-0.302,0.414-0.229,0.534,0.478,1.153l3.019,2.627c0.212,0.182,0.218,0.188,0.395-0.014l0.323-0.373
	c0.253-0.291,0.562-0.674,0.555-0.978c-0.007-0.292-0.1-0.489-0.199-0.709c0.004-0.089,0.124-0.155,0.199-0.135
	c0.208,0.372,0.553,0.85,0.781,1.133c-0.004,0.032-0.075,0.125-0.111,0.127c-0.251-0.146-0.437,0.082-0.709,0.393l-2.381,2.736
	c-0.317,0.365-0.356,0.438-0.27,0.692c-0.016,0.045-0.086,0.114-0.128,0.104c-0.21-0.316-0.716-0.84-0.939-0.995
	c-0.029-0.074,0.072-0.188,0.142-0.187c0.184,0.125,0.477,0.296,0.642,0.259c0.246-0.056,0.525-0.265,0.848-0.638l0.419-0.479
	c0.177-0.202,0.163-0.201-0.057-0.395L205.688,80.606z"/>
<path fill="#6F6F6E" d="M201.575,85.23c0.167,0.122,0.211,0.122,0.431-0.04l1.083-0.806c0.18-0.133,0.207-0.187,0.146-0.375
	l-0.309-0.942c-0.131-0.401-0.228-0.634-0.286-0.714c-0.062-0.085-0.129-0.103-0.314,0.012l-0.254,0.154
	c-0.077,0.001-0.162-0.115-0.118-0.189c0.199-0.126,0.42-0.292,0.764-0.535c0.238-0.176,0.485-0.382,0.673-0.534
	c0.066-0.003,0.166,0.1,0.148,0.169l-0.222,0.198c-0.161,0.141-0.261,0.338-0.169,0.671c0.116,0.427,0.26,1.044,0.558,2.074
	l0.708,2.486c0.089,0.333,0.148,0.502,0.256,0.6c-0.137,0.18-0.163,0.4-0.171,0.551c-0.043,0.033-0.106,0.055-0.157,0.015
	c-0.327-0.246-0.691-0.491-1.032-0.727l-3.13-2.159c-0.668-0.464-0.839-0.502-1.175-0.308l-0.212,0.121
	c-0.075,0.002-0.147-0.123-0.133-0.179c0.307-0.203,0.563-0.383,0.887-0.624c0.343-0.256,0.607-0.473,0.809-0.637
	c0.079-0.013,0.172,0.097,0.149,0.171l-0.193,0.176c-0.14,0.126-0.21,0.242-0.157,0.315c0.06,0.08,0.193,0.182,0.377,0.313
	L201.575,85.23z M203.475,84.812c-0.066-0.208-0.077-0.21-0.28-0.06l-0.884,0.656c-0.207,0.155-0.202,0.195,0.008,0.34l1.258,0.885
	c0.184,0.13,0.394,0.275,0.499,0.33l0.016-0.01c-0.004-0.052-0.061-0.279-0.142-0.553L203.475,84.812z M206.225,87.779
	c0.131-0.031,0.208-0.046,0.276-0.017c0.053,0.027,0.104,0.124,0.107,0.266c0.019,0.131-0.007,0.261-0.056,0.298
	c-0.051,0.038-0.137,0.057-0.264,0.051l-1.758-0.021c-0.066-0.048-0.069-0.126-0.031-0.177L206.225,87.779z"/>
<rect id="_x3C_Slice_x3E__3_" x="155" y="33" fill="none" width="62" height="61"/>
<rect display="none" fill="#EFEFE8" width="1500" height="243"/>
<g display="none">
	<g display="inline">
		<rect x="150" y="28" display="none" fill="none" width="1206" height="80"/>
		<text transform="matrix(1 0 0 1 150 37.646)" fill="none" font-family="'Montserrat-Regular'" font-size="13">PROJECTS AREAS</text>
	</g>
	<rect x="150" y="28" fill="none" width="1206" height="80"/>
	<text transform="matrix(1 0 0 1 150 37.646)" display="inline" fill="#131410" font-family="'Montserrat-Regular'" font-size="13">PROJECTS AREAS</text>
	<g display="inline">
		<rect x="150" y="28" display="none" fill="none" width="1206" height="80"/>
		<text transform="matrix(1 0 0 1 150 37.646)" fill="none" font-family="'Montserrat-Regular'" font-size="13">PROJECTS AREAS</text>
	</g>
</g>
<rect x="150" y="74" display="none" fill="none" width="224" height="120"/>
<text transform="matrix(1 0 0 1 150 86.1875)" display="none"><tspan x="0" y="0" display="inline" fill="#4D4D4D" font-family="'RobotoSlab-Regular'" font-size="16">Basic Translational and Clinic </tspan><tspan x="0" y="21" display="inline" fill="#4D4D4D" font-family="'RobotoSlab-Regular'" font-size="16">Research</tspan></text>
</svg>
